<?xml version="1.0" encoding="utf-8"?>
<!-- Generator: Adobe Illustrator 27.6.1, SVG Export Plug-In . SVG Version: 6.00 Build 0)  -->
<svg version="1.1" id="Layer_1" xmlns="http://www.w3.org/2000/svg" xmlns:xlink="http://www.w3.org/1999/xlink" x="0px" y="0px"
	 viewBox="0 0 144.46 417" style="enable-background:new 0 0 144.46 417;" xml:space="preserve">
<style type="text/css">
	.st0{fill:#FFFFFF;}
	.st1{fill:#B6E9FF;}
	.st2{fill:#6F787A;}
	.st3{opacity:0.25;fill:none;stroke:#E5F4F9;stroke-width:2;stroke-miterlimit:10;}
</style>
<g id="Bottle">
	<g>
		<path class="st0" d="M22,417c-12.13,0-22-9.87-22-22v-57.13l1.35-1.35L0,335.16v-48.29l1.35-1.35L0,284.16v-42.29l1.35-1.35
			L0,239.16v-38.29l1.36-1.36L0,198.16v-38.29l1.36-1.36L0,157.16v-44.93c0-24.07,12.12-46.51,32-59.9V31
			c0-1.83,0.24-3.69,0.72-5.52L34.67,18h74.66l1.95,7.48c0.48,1.83,0.72,3.69,0.72,5.52v21.01c20.16,13.35,32.46,35.91,32.46,60.22
			v45.47l-0.81,0.81l0.81,0.81v39.37l-0.81,0.81l0.81,0.81v39.37l-0.81,0.81l0.81,0.81v43.37l-0.81,0.81l0.81,0.81v49.37l-0.81,0.81
			l0.81,0.81V395c0,12.13-9.87,22-22,22H22z"/>
		<path class="st0" d="M32,38V14.98C32,6.72,38.72,0,46.98,0h50.03C105.28,0,112,6.72,112,14.98V38H32z"/>
		<path class="st1" d="M102,57.64V31c0-1.04-0.15-2.04-0.4-3H42.4c-0.25,0.96-0.4,1.96-0.4,3v26.9c-19.05,10.67-32,31.05-32,54.33
			c0,0,0,20.56,0,27.41c0,3.59,0,8.27,0,13.37l5.5,5.5l-5.5,5.5c0,8.84,0,17.63,0,23.52c0,1.9,0,4.1,0,6.49l5.5,5.5l-5.5,5.5
			c0,10.47,0,22.04,0,30.01l5.5,5.5l-5.5,5.5c0,10.93,0,25.22,0,33.3c0,0.22,0,0.47,0,0.71l5.5,5.5l-5.5,5.5c0,9.18,0,19.83,0,26.21
			c0,3.52,0,8.31,0,13.8l5.5,5.5l-5.5,5.5c0,23.93,0,52.99,0,52.99c0,6.6,5.4,12,12,12h100.46c6.6,0,12-5.4,12-12
			c0,0,0-29.14,0-53.53l-4.96-4.96l4.96-4.96c0-6.54,0-12.27,0-16.33c0-6.04,0-15.92,0-24.75l-4.96-4.96l4.96-4.96
			c0-1.16,0-2.26,0-3.24c0-7.74,0-21.79,0-31.84l-4.96-4.96l4.96-4.96c0-8.51,0-20.23,0-31.09l-4.96-4.96l4.96-4.96
			c0-4.15,0-7.93,0-11.02c0-5.07,0-12.48,0-20.07l-4.96-4.96l4.96-4.96c0-5.32,0-10.24,0-13.92c0-6.85,0-27.41,0-27.41
			C134.46,88.77,121.3,68.24,102,57.64z"/>
		<path class="st2" d="M102,28V14.98c0-2.74-2.24-4.98-4.98-4.98H46.98C44.24,10,42,12.24,42,14.98V28h0.4h59.21H102z"/>
	</g>
	<line class="st3" x1="15" y1="159" x2="130" y2="159"/>
	<line class="st3" x1="15" y1="199" x2="130" y2="199"/>
	<line class="st3" x1="15" y1="241" x2="130" y2="241"/>
	<line class="st3" x1="15" y1="286" x2="130" y2="286"/>
	<line class="st3" x1="15" y1="337" x2="130" y2="337"/>
</g>
</svg>
