<svg width="43" height="43" viewBox="0 0 43 43" fill="none" xmlns="http://www.w3.org/2000/svg">
<g id="ph:star-bold">
<path id="Vector" d="M40.8164 16.1334C40.6122 15.5074 40.2285 14.9553 39.7131 14.5455C39.1977 14.1358 38.5732 13.8866 37.9173 13.8289L28.3431 13.0008L24.5974 4.07492C24.3397 3.46792 23.9091 2.95018 23.3592 2.58623C22.8093 2.22227 22.1645 2.0282 21.505 2.0282C20.8456 2.0282 20.2008 2.22227 19.6509 2.58623C19.101 2.95018 18.6704 3.46792 18.4127 4.07492L14.662 13.0008L5.08778 13.8289C4.42831 13.8835 3.79966 14.1316 3.2807 14.5422C2.76175 14.9527 2.3756 15.5074 2.17071 16.1366C1.96582 16.7658 1.95131 17.4415 2.12902 18.0789C2.30672 18.7163 2.66871 19.2871 3.16958 19.7195L10.446 26.0688L8.26239 35.5153C8.11264 36.1586 8.15582 36.8317 8.38654 37.4505C8.61725 38.0694 9.02527 38.6065 9.55957 38.9947C10.0939 39.383 10.7308 39.6051 11.3906 39.6333C12.0505 39.6616 12.704 39.4947 13.2695 39.1535L21.5 34.1548L29.7305 39.1535C30.296 39.4941 30.9493 39.6606 31.6088 39.6321C32.2684 39.6036 32.9049 39.3814 33.4389 38.9932C33.9729 38.6051 34.3807 38.0682 34.6114 37.4497C34.8421 36.8311 34.8854 36.1583 34.7359 35.5153L32.5524 26.0688L39.8288 19.7195C40.3283 19.2855 40.6885 18.7136 40.8642 18.0756C41.0399 17.4376 41.0233 16.762 40.8164 16.1334ZM29.6045 23.2922C29.1439 23.693 28.8011 24.2117 28.6132 24.7927C28.4253 25.3736 28.3993 25.9948 28.5379 26.5895L30.4511 34.8737L23.2385 30.4931C22.7147 30.1741 22.1133 30.0054 21.5 30.0054C20.8868 30.0054 20.2853 30.1741 19.7615 30.4931L12.549 34.8737L14.4621 26.5895C14.6008 25.9948 14.5747 25.3736 14.3868 24.7927C14.1989 24.2117 13.8562 23.693 13.3955 23.2922L6.99758 17.7106L15.4195 16.9816C16.0294 16.9294 16.6133 16.7109 17.1076 16.3499C17.6019 15.9889 17.9876 15.4992 18.2229 14.9341L21.5 7.12523L24.7771 14.9341C25.0124 15.4992 25.3982 15.9889 25.8925 16.3499C26.3868 16.7109 26.9706 16.9294 27.5805 16.9816L36.0024 17.7106L29.6045 23.2922Z" fill="black"/>
</g>
</svg>
