<svg width="60" height="60" viewBox="0 0 60 60" fill="none" xmlns="http://www.w3.org/2000/svg">
<g id="bx:map">
<path id="Vector" d="M30 35C35.515 35 40 30.515 40 25C40 19.485 35.515 15 30 15C24.485 15 20 19.485 20 25C20 30.515 24.485 35 30 35ZM30 20C32.7575 20 35 22.2425 35 25C35 27.7575 32.7575 30 30 30C27.2425 30 25 27.7575 25 25C25 22.2425 27.2425 20 30 20Z" fill="black"/>
<path id="Vector_2" d="M28.55 54.535C28.9731 54.8372 29.48 54.9996 30 54.9996C30.5199 54.9996 31.0269 54.8372 31.45 54.535C32.21 53.9975 50.0725 41.1 50 25C50 13.9725 41.0275 5 30 5C18.9725 5 9.99998 13.9725 9.99998 24.9875C9.92748 41.1 27.79 53.9975 28.55 54.535ZM30 10C38.2725 10 45 16.7275 45 25.0125C45.0525 36.1075 34.03 46.07 30 49.3375C25.9725 46.0675 14.9475 36.1025 15 25C15 16.7275 21.7275 10 30 10Z" fill="black"/>
</g>
</svg>
