<svg width="59" height="59" viewBox="0 0 59 59" fill="none" xmlns="http://www.w3.org/2000/svg">
<g id="mingcute:game-2-line" clip-path="url(#clip0_23_25)">
<g id="Group">
<path id="Vector" fill-rule="evenodd" clip-rule="evenodd" d="M41.7917 9.83331C43.6674 9.83331 45.2186 10.9002 46.3544 12.0212C47.5368 13.184 48.6209 14.7475 49.5846 16.4708C51.5193 19.9272 53.2033 24.4432 54.3169 28.9051C55.4231 33.3325 56.0353 37.9566 55.6444 41.5925C55.2511 45.2431 53.3704 49.1666 49.1667 49.1666C45.5382 49.1666 42.6472 47.2983 40.2823 45.4029L39.4194 44.6925L38.2099 43.6723L37.1184 42.7676C34.6134 40.7395 32.3886 39.3333 29.5 39.3333C26.6115 39.3333 24.3867 40.7395 21.8816 42.7676L20.7901 43.6723L19.5806 44.6925L18.7202 45.4029C16.3504 47.2983 13.4594 49.1666 9.83335 49.1666C5.62714 49.1666 3.74652 45.2431 3.35564 41.5925C2.96723 37.9542 3.57689 33.3325 4.68314 28.9026C5.79677 24.4432 7.48073 19.9297 9.41544 16.4684C10.3791 14.7475 11.4632 13.184 12.6457 12.0188C13.7814 10.9002 15.3326 9.83331 17.2084 9.83331C18.4744 9.83331 19.7109 10.1357 20.9278 10.4971L22.3831 10.942C22.6265 11.0158 22.8674 11.0895 23.1084 11.1559C25.2348 11.7656 27.4104 12.2916 29.5 12.2916C31.5896 12.2916 33.7652 11.7656 35.8917 11.1559L38.0673 10.4995C39.2916 10.1381 40.5379 9.83331 41.7917 9.83331ZM41.7917 14.75C40.8501 14.75 39.8668 15.0351 38.913 15.3474L37.7871 15.7186C37.6069 15.7772 37.4257 15.8329 37.2438 15.8857C35.0681 16.5052 32.3271 17.2083 29.5 17.2083C26.6729 17.2083 23.9319 16.5052 21.7563 15.8857L21.2154 15.7186L20.0871 15.3474C19.1332 15.0327 18.1499 14.75 17.2084 14.75C16.1808 14.9417 15.2589 16.1881 14.5632 17.3435L14.1748 18.0196L13.7077 18.8701C12.0311 21.8644 10.4873 25.9501 9.45477 30.0949C8.48373 33.9717 8.01173 37.6838 8.19119 40.4469L8.2551 41.1672L8.30427 41.5999L8.37802 42.1112C8.54764 43.097 8.91394 44.25 9.83335 44.25C11.8295 44.25 13.4963 43.2568 15.5686 41.6097L16.5594 40.8034L18.4277 39.2399L19.2734 38.5516C21.889 36.4792 25.1611 34.4166 29.5 34.4166C33.839 34.4166 37.111 36.4816 39.7267 38.5516L40.5748 39.2399L42.4431 40.8034L43.4314 41.6097C45.5038 43.2568 47.1681 44.25 49.1667 44.25C50.0025 44.25 50.3811 43.2986 50.5704 42.3841L50.6638 41.8482L50.7548 41.0689C51.0571 38.2516 50.5901 34.2716 49.5477 30.0974C48.5988 26.2968 47.2221 22.5454 45.7078 19.6396L44.8253 18.0171L44.4369 17.346C43.7411 16.1881 42.8193 14.9417 41.7917 14.75ZM20.8959 19.6666C22.5258 19.6666 24.089 20.3142 25.2416 21.4667C26.3942 22.6193 27.0417 24.1825 27.0417 25.8125C27.0417 27.4425 26.3942 29.0057 25.2416 30.1582C24.089 31.3108 22.5258 31.9583 20.8959 31.9583C19.2659 31.9583 17.7027 31.3108 16.5501 30.1582C15.3975 29.0057 14.75 27.4425 14.75 25.8125C14.75 24.1825 15.3975 22.6193 16.5501 21.4667C17.7027 20.3142 19.2659 19.6666 20.8959 19.6666ZM38.1042 19.6666C38.7063 19.6667 39.2875 19.8878 39.7374 20.2879C40.1874 20.688 40.4749 21.2394 40.5453 21.8374L40.5625 22.125V23.3541H41.7917C42.4183 23.3548 43.0209 23.5948 43.4765 24.0249C43.9322 24.455 44.2063 25.0429 44.2431 25.6684C44.2798 26.2939 44.0763 26.9098 43.6741 27.3903C43.272 27.8708 42.7015 28.1796 42.0793 28.2536L41.7917 28.2708H40.5625V29.5C40.5618 30.1266 40.3219 30.7292 39.8918 31.1848C39.4616 31.6405 38.8738 31.9146 38.2483 31.9514C37.6228 31.9881 37.0068 31.7846 36.5263 31.3824C36.0459 30.9803 35.7371 30.4098 35.6631 29.7876L35.6459 29.5V28.2708H34.4167C33.7901 28.2701 33.1874 28.0302 32.7318 27.6001C32.2762 27.1699 32.002 26.5821 31.9653 25.9566C31.9286 25.331 32.1321 24.7151 32.5343 24.2346C32.9364 23.7542 33.5069 23.4454 34.1291 23.3714L34.4167 23.3541H35.6459V22.125C35.6459 21.473 35.9049 20.8477 36.3659 20.3867C36.8269 19.9256 37.4522 19.6666 38.1042 19.6666ZM20.8959 24.5833C20.5699 24.5833 20.2572 24.7128 20.0267 24.9433C19.7962 25.1738 19.6667 25.4865 19.6667 25.8125C19.6667 26.1385 19.7962 26.4511 20.0267 26.6816C20.2572 26.9121 20.5699 27.0416 20.8959 27.0416C21.2218 27.0416 21.5345 26.9121 21.765 26.6816C21.9955 26.4511 22.125 26.1385 22.125 25.8125C22.125 25.4865 21.9955 25.1738 21.765 24.9433C21.5345 24.7128 21.2218 24.5833 20.8959 24.5833Z" fill="black"/>
</g>
</g>
<defs>
<clipPath id="clip0_23_25">
<rect width="59" height="59" fill="white"/>
</clipPath>
</defs>
</svg>
