<?xml version="1.0" encoding="UTF-8"?>
<svg id="Layer_1" data-name="Layer 1" xmlns="http://www.w3.org/2000/svg" viewBox="0 0 570.11 570">
  <defs>
    <style>
      .cls-1 {
        fill: #93d4e5;
      }

      .cls-2 {
        fill: #77cc71;
      }
    </style>
  </defs>
  <circle class="cls-1" cx="285" cy="285" r="285"/>
  <path class="cls-2" d="m131,45c10.99-6.28,38.6-1.44,50.15,7.03s46.12-.81,50.79-7.72,66.85-16.22,77.02,5.55c3.83,8.21-25.1,39.39-42.32,29.13-15.68-9.35-47.75,4.62-36.2,14.63,11.55,10.01,17.56,22.38,29.56,15.38,26.85-15.66,29-37,49.19-23.92,13.36,8.66,24.29,46.24,9.82,36.27s-49.02,9.65-72.4,14.63c0,0-22.42,23.63-20.84,33.38s-17.67,49.03-39.24,40.56-50.06-6.93-43.13,14.63,18.48,46.98,33.12,43.9c14.63-3.08,63.93,16.17,55.45,37.74-8.47,21.57,38.02-10.2,65.02,17.8,6.95,7.21-1.09,63.07-27.28,93.88-26.19,30.81-40.82,50.06-62.39,59.31-21.57,9.24-22.73,46.88-17.34,53.82s-31.18,1.64-36.58-37.64-5.39-101.67-5.39-101.67c0,0-26.19-18.48-30.81-44.67-4.62-26.19-2.62-68.78,20.26-67.51s11.32-21.83,1.31-34.93c-10.01-13.09-72.79-30.09-89.79-53.58-26.34-36.4-12-50,9-78,20.71-27.62,52-56,73-68Z"/>
  <path class="cls-2" d="m514,206c-14.63-3.08-30,21-95,6-29.49-6.81-23-3-50,25-6.95,7.21-17,33,14,66,2.97,3.16,11,22,62,24,33.12,1.3,16.88,75.87,29.28,81.18,21.57,9.24,8.72,58.82,20.72,61.82,8.52,2.13,11.58-5.3,34-38,24-35,36-92,36-92,0,0,6-34,5-63-1.1-31.98-2.99-67.76-25.86-66.49l-30.14-4.51Z"/>
  <path class="cls-2" d="m513.31,114.83c-26.19,13.09-13.09,27.49-26.19,24.88s-25.06,16.33-36.1.31c-11.03-16.02-21.62.23-15.67,6.5,5.95,6.28,8.57,21.99-5.84,18.06s-2.62,41.9,15.71,22.26c18.33-19.64.12-35.83,22.97-29.04s13.69,2.86,15,12.02c1.31,9.16,28.71,5.84,35.35,6.55,15.45,1.63,38.45,23.63,23.45-15.37-4.62-12.02-28.69-46.17-28.69-46.17Z"/>
</svg>